<svg xmlns="http://www.w3.org/2000/svg" width="1024" height="1024" viewBox="0 0 1024 1024"><defs><linearGradient id="rib"><stop stop-color="#FFFFFF" stop-opacity=".40"/><stop offset=".18" stop-color="#FFFFFF" stop-opacity=".20"/><stop offset=".43" stop-color="#F2EDE4" stop-opacity=".08"/><stop offset=".78" stop-color="#65708E" stop-opacity=".17"/><stop offset=".91" stop-color="#FFFFFF" stop-opacity=".36"/><stop offset="1" stop-color="#FFFFFF" stop-opacity=".56"/></linearGradient></defs><rect x="0" width="32" height="1024" fill="url(#rib)"/><rect x="30.5" width="1.5" height="1024" fill="#FFFFFF" opacity=".54"/><rect x="32" width="32" height="1024" fill="url(#rib)"/><rect x="62.5" width="1.5" height="1024" fill="#FFFFFF" opacity=".54"/><rect x="64" width="32" height="1024" fill="url(#rib)"/><rect x="94.5" width="1.5" height="1024" fill="#FFFFFF" opacity=".54"/><rect x="96" width="32" height="1024" fill="url(#rib)"/><rect x="126.5" width="1.5" height="1024" fill="#FFFFFF" opacity=".54"/><rect x="128" width="32" height="1024" fill="url(#rib)"/><rect x="158.5" width="1.5" height="1024" fill="#FFFFFF" opacity=".54"/><rect x="160" width="32" height="1024" fill="url(#rib)"/><rect x="190.5" width="1.5" height="1024" fill="#FFFFFF" opacity=".54"/><rect x="192" width="32" height="1024" fill="url(#rib)"/><rect x="222.5" width="1.5" height="1024" fill="#FFFFFF" opacity=".54"/><rect x="224" width="32" height="1024" fill="url(#rib)"/><rect x="254.5" width="1.5" height="1024" fill="#FFFFFF" opacity=".54"/><rect x="256" width="32" height="1024" fill="url(#rib)"/><rect x="286.5" width="1.5" height="1024" fill="#FFFFFF" opacity=".54"/><rect x="288" width="32" height="1024" fill="url(#rib)"/><rect x="318.5" width="1.5" height="1024" fill="#FFFFFF" opacity=".54"/><rect x="320" width="32" height="1024" fill="url(#rib)"/><rect x="350.5" width="1.5" height="1024" fill="#FFFFFF" opacity=".54"/><rect x="352" width="32" height="1024" fill="url(#rib)"/><rect x="382.5" width="1.5" height="1024" fill="#FFFFFF" opacity=".54"/><rect x="384" width="32" height="1024" fill="url(#rib)"/><rect x="414.5" width="1.5" height="1024" fill="#FFFFFF" opacity=".54"/><rect x="416" width="32" height="1024" fill="url(#rib)"/><rect x="446.5" width="1.5" height="1024" fill="#FFFFFF" opacity=".54"/><rect x="448" width="32" height="1024" fill="url(#rib)"/><rect x="478.5" width="1.5" height="1024" fill="#FFFFFF" opacity=".54"/><rect x="480" width="32" height="1024" fill="url(#rib)"/><rect x="510.5" width="1.5" height="1024" fill="#FFFFFF" opacity=".54"/><rect x="512" width="32" height="1024" fill="url(#rib)"/><rect x="542.5" width="1.5" height="1024" fill="#FFFFFF" opacity=".54"/><rect x="544" width="32" height="1024" fill="url(#rib)"/><rect x="574.5" width="1.5" height="1024" fill="#FFFFFF" opacity=".54"/><rect x="576" width="32" height="1024" fill="url(#rib)"/><rect x="606.5" width="1.5" height="1024" fill="#FFFFFF" opacity=".54"/><rect x="608" width="32" height="1024" fill="url(#rib)"/><rect x="638.5" width="1.5" height="1024" fill="#FFFFFF" opacity=".54"/><rect x="640" width="32" height="1024" fill="url(#rib)"/><rect x="670.5" width="1.5" height="1024" fill="#FFFFFF" opacity=".54"/><rect x="672" width="32" height="1024" fill="url(#rib)"/><rect x="702.5" width="1.5" height="1024" fill="#FFFFFF" opacity=".54"/><rect x="704" width="32" height="1024" fill="url(#rib)"/><rect x="734.5" width="1.5" height="1024" fill="#FFFFFF" opacity=".54"/><rect x="736" width="32" height="1024" fill="url(#rib)"/><rect x="766.5" width="1.5" height="1024" fill="#FFFFFF" opacity=".54"/><rect x="768" width="32" height="1024" fill="url(#rib)"/><rect x="798.5" width="1.5" height="1024" fill="#FFFFFF" opacity=".54"/><rect x="800" width="32" height="1024" fill="url(#rib)"/><rect x="830.5" width="1.5" height="1024" fill="#FFFFFF" opacity=".54"/><rect x="832" width="32" height="1024" fill="url(#rib)"/><rect x="862.5" width="1.5" height="1024" fill="#FFFFFF" opacity=".54"/><rect x="864" width="32" height="1024" fill="url(#rib)"/><rect x="894.5" width="1.5" height="1024" fill="#FFFFFF" opacity=".54"/><rect x="896" width="32" height="1024" fill="url(#rib)"/><rect x="926.5" width="1.5" height="1024" fill="#FFFFFF" opacity=".54"/><rect x="928" width="32" height="1024" fill="url(#rib)"/><rect x="958.5" width="1.5" height="1024" fill="#FFFFFF" opacity=".54"/><rect x="960" width="32" height="1024" fill="url(#rib)"/><rect x="990.5" width="1.5" height="1024" fill="#FFFFFF" opacity=".54"/><rect x="992" width="32" height="1024" fill="url(#rib)"/><rect x="1022.5" width="1.5" height="1024" fill="#FFFFFF" opacity=".54"/></svg>
