<svg xmlns="http://www.w3.org/2000/svg" width="1024" height="1024" viewBox="0 0 1024 1024"><defs></defs><rect x="0" width="5" height="1024" fill="#F2EDE4" opacity=".12"/><rect x="6" width="3" height="1024" fill="#151A32" opacity=".12"/><rect x="14" width="5" height="1024" fill="#F2EDE4" opacity=".12"/><rect x="20" width="3" height="1024" fill="#151A32" opacity=".12"/><rect x="28" width="5" height="1024" fill="#F2EDE4" opacity=".12"/><rect x="34" width="3" height="1024" fill="#151A32" opacity=".12"/><rect x="42" width="5" height="1024" fill="#F2EDE4" opacity=".12"/><rect x="48" width="3" height="1024" fill="#151A32" opacity=".12"/><rect x="56" width="5" height="1024" fill="#F2EDE4" opacity=".12"/><rect x="62" width="3" height="1024" fill="#151A32" opacity=".12"/><rect x="70" width="5" height="1024" fill="#F2EDE4" opacity=".12"/><rect x="76" width="3" height="1024" fill="#151A32" opacity=".12"/><rect x="84" width="5" height="1024" fill="#F2EDE4" opacity=".12"/><rect x="90" width="3" height="1024" fill="#151A32" opacity=".12"/><rect x="98" width="5" height="1024" fill="#F2EDE4" opacity=".12"/><rect x="104" width="3" height="1024" fill="#151A32" opacity=".12"/><rect x="112" width="5" height="1024" fill="#F2EDE4" opacity=".12"/><rect x="118" width="3" height="1024" fill="#151A32" opacity=".12"/><rect x="126" width="5" height="1024" fill="#F2EDE4" opacity=".12"/><rect x="132" width="3" height="1024" fill="#151A32" opacity=".12"/><rect x="140" width="5" height="1024" fill="#F2EDE4" opacity=".12"/><rect x="146" width="3" height="1024" fill="#151A32" opacity=".12"/><rect x="154" width="5" height="1024" fill="#F2EDE4" opacity=".12"/><rect x="160" width="3" height="1024" fill="#151A32" opacity=".12"/><rect x="168" width="5" height="1024" fill="#F2EDE4" opacity=".12"/><rect x="174" width="3" height="1024" fill="#151A32" opacity=".12"/><rect x="182" width="5" height="1024" fill="#F2EDE4" opacity=".12"/><rect x="188" width="3" height="1024" fill="#151A32" opacity=".12"/><rect x="196" width="5" height="1024" fill="#F2EDE4" opacity=".12"/><rect x="202" width="3" height="1024" fill="#151A32" opacity=".12"/><rect x="210" width="5" height="1024" fill="#F2EDE4" opacity=".12"/><rect x="216" width="3" height="1024" fill="#151A32" opacity=".12"/><rect x="224" width="5" height="1024" fill="#F2EDE4" opacity=".12"/><rect x="230" width="3" height="1024" fill="#151A32" opacity=".12"/><rect x="238" width="5" height="1024" fill="#F2EDE4" opacity=".12"/><rect x="244" width="3" height="1024" fill="#151A32" opacity=".12"/><rect x="252" width="5" height="1024" fill="#F2EDE4" opacity=".12"/><rect x="258" width="3" height="1024" fill="#151A32" opacity=".12"/><rect x="266" width="5" height="1024" fill="#F2EDE4" opacity=".12"/><rect x="272" width="3" height="1024" fill="#151A32" opacity=".12"/><rect x="280" width="5" height="1024" fill="#F2EDE4" opacity=".12"/><rect x="286" width="3" height="1024" fill="#151A32" opacity=".12"/><rect x="294" width="5" height="1024" fill="#F2EDE4" opacity=".12"/><rect x="300" width="3" height="1024" fill="#151A32" opacity=".12"/><rect x="308" width="5" height="1024" fill="#F2EDE4" opacity=".12"/><rect x="314" width="3" height="1024" fill="#151A32" opacity=".12"/><rect x="322" width="5" height="1024" fill="#F2EDE4" opacity=".12"/><rect x="328" width="3" height="1024" fill="#151A32" opacity=".12"/><rect x="336" width="5" height="1024" fill="#F2EDE4" opacity=".12"/><rect x="342" width="3" height="1024" fill="#151A32" opacity=".12"/><rect x="350" width="5" height="1024" fill="#F2EDE4" opacity=".12"/><rect x="356" width="3" height="1024" fill="#151A32" opacity=".12"/><rect x="364" width="5" height="1024" fill="#F2EDE4" opacity=".12"/><rect x="370" width="3" height="1024" fill="#151A32" opacity=".12"/><rect x="378" width="5" height="1024" fill="#F2EDE4" opacity=".12"/><rect x="384" width="3" height="1024" fill="#151A32" opacity=".12"/><rect x="392" width="5" height="1024" fill="#F2EDE4" opacity=".12"/><rect x="398" width="3" height="1024" fill="#151A32" opacity=".12"/><rect x="406" width="5" height="1024" fill="#F2EDE4" opacity=".12"/><rect x="412" width="3" height="1024" fill="#151A32" opacity=".12"/><rect x="420" width="5" height="1024" fill="#F2EDE4" opacity=".12"/><rect x="426" width="3" height="1024" fill="#151A32" opacity=".12"/><rect x="434" width="5" height="1024" fill="#F2EDE4" opacity=".12"/><rect x="440" width="3" height="1024" fill="#151A32" opacity=".12"/><rect x="448" width="5" height="1024" fill="#F2EDE4" opacity=".12"/><rect x="454" width="3" height="1024" fill="#151A32" opacity=".12"/><rect x="462" width="5" height="1024" fill="#F2EDE4" opacity=".12"/><rect x="468" width="3" height="1024" fill="#151A32" opacity=".12"/><rect x="476" width="5" height="1024" fill="#F2EDE4" opacity=".12"/><rect x="482" width="3" height="1024" fill="#151A32" opacity=".12"/><rect x="490" width="5" height="1024" fill="#F2EDE4" opacity=".12"/><rect x="496" width="3" height="1024" fill="#151A32" opacity=".12"/><rect x="504" width="5" height="1024" fill="#F2EDE4" opacity=".12"/><rect x="510" width="3" height="1024" fill="#151A32" opacity=".12"/><rect x="518" width="5" height="1024" fill="#F2EDE4" opacity=".12"/><rect x="524" width="3" height="1024" fill="#151A32" opacity=".12"/><rect x="532" width="5" height="1024" fill="#F2EDE4" opacity=".12"/><rect x="538" width="3" height="1024" fill="#151A32" opacity=".12"/><rect x="546" width="5" height="1024" fill="#F2EDE4" opacity=".12"/><rect x="552" width="3" height="1024" fill="#151A32" opacity=".12"/><rect x="560" width="5" height="1024" fill="#F2EDE4" opacity=".12"/><rect x="566" width="3" height="1024" fill="#151A32" opacity=".12"/><rect x="574" width="5" height="1024" fill="#F2EDE4" opacity=".12"/><rect x="580" width="3" height="1024" fill="#151A32" opacity=".12"/><rect x="588" width="5" height="1024" fill="#F2EDE4" opacity=".12"/><rect x="594" width="3" height="1024" fill="#151A32" opacity=".12"/><rect x="602" width="5" height="1024" fill="#F2EDE4" opacity=".12"/><rect x="608" width="3" height="1024" fill="#151A32" opacity=".12"/><rect x="616" width="5" height="1024" fill="#F2EDE4" opacity=".12"/><rect x="622" width="3" height="1024" fill="#151A32" opacity=".12"/><rect x="630" width="5" height="1024" fill="#F2EDE4" opacity=".12"/><rect x="636" width="3" height="1024" fill="#151A32" opacity=".12"/><rect x="644" width="5" height="1024" fill="#F2EDE4" opacity=".12"/><rect x="650" width="3" height="1024" fill="#151A32" opacity=".12"/><rect x="658" width="5" height="1024" fill="#F2EDE4" opacity=".12"/><rect x="664" width="3" height="1024" fill="#151A32" opacity=".12"/><rect x="672" width="5" height="1024" fill="#F2EDE4" opacity=".12"/><rect x="678" width="3" height="1024" fill="#151A32" opacity=".12"/><rect x="686" width="5" height="1024" fill="#F2EDE4" opacity=".12"/><rect x="692" width="3" height="1024" fill="#151A32" opacity=".12"/><rect x="700" width="5" height="1024" fill="#F2EDE4" opacity=".12"/><rect x="706" width="3" height="1024" fill="#151A32" opacity=".12"/><rect x="714" width="5" height="1024" fill="#F2EDE4" opacity=".12"/><rect x="720" width="3" height="1024" fill="#151A32" opacity=".12"/><rect x="728" width="5" height="1024" fill="#F2EDE4" opacity=".12"/><rect x="734" width="3" height="1024" fill="#151A32" opacity=".12"/><rect x="742" width="5" height="1024" fill="#F2EDE4" opacity=".12"/><rect x="748" width="3" height="1024" fill="#151A32" opacity=".12"/><rect x="756" width="5" height="1024" fill="#F2EDE4" opacity=".12"/><rect x="762" width="3" height="1024" fill="#151A32" opacity=".12"/><rect x="770" width="5" height="1024" fill="#F2EDE4" opacity=".12"/><rect x="776" width="3" height="1024" fill="#151A32" opacity=".12"/><rect x="784" width="5" height="1024" fill="#F2EDE4" opacity=".12"/><rect x="790" width="3" height="1024" fill="#151A32" opacity=".12"/><rect x="798" width="5" height="1024" fill="#F2EDE4" opacity=".12"/><rect x="804" width="3" height="1024" fill="#151A32" opacity=".12"/><rect x="812" width="5" height="1024" fill="#F2EDE4" opacity=".12"/><rect x="818" width="3" height="1024" fill="#151A32" opacity=".12"/><rect x="826" width="5" height="1024" fill="#F2EDE4" opacity=".12"/><rect x="832" width="3" height="1024" fill="#151A32" opacity=".12"/><rect x="840" width="5" height="1024" fill="#F2EDE4" opacity=".12"/><rect x="846" width="3" height="1024" fill="#151A32" opacity=".12"/><rect x="854" width="5" height="1024" fill="#F2EDE4" opacity=".12"/><rect x="860" width="3" height="1024" fill="#151A32" opacity=".12"/><rect x="868" width="5" height="1024" fill="#F2EDE4" opacity=".12"/><rect x="874" width="3" height="1024" fill="#151A32" opacity=".12"/><rect x="882" width="5" height="1024" fill="#F2EDE4" opacity=".12"/><rect x="888" width="3" height="1024" fill="#151A32" opacity=".12"/><rect x="896" width="5" height="1024" fill="#F2EDE4" opacity=".12"/><rect x="902" width="3" height="1024" fill="#151A32" opacity=".12"/><rect x="910" width="5" height="1024" fill="#F2EDE4" opacity=".12"/><rect x="916" width="3" height="1024" fill="#151A32" opacity=".12"/><rect x="924" width="5" height="1024" fill="#F2EDE4" opacity=".12"/><rect x="930" width="3" height="1024" fill="#151A32" opacity=".12"/><rect x="938" width="5" height="1024" fill="#F2EDE4" opacity=".12"/><rect x="944" width="3" height="1024" fill="#151A32" opacity=".12"/><rect x="952" width="5" height="1024" fill="#F2EDE4" opacity=".12"/><rect x="958" width="3" height="1024" fill="#151A32" opacity=".12"/><rect x="966" width="5" height="1024" fill="#F2EDE4" opacity=".12"/><rect x="972" width="3" height="1024" fill="#151A32" opacity=".12"/><rect x="980" width="5" height="1024" fill="#F2EDE4" opacity=".12"/><rect x="986" width="3" height="1024" fill="#151A32" opacity=".12"/><rect x="994" width="5" height="1024" fill="#F2EDE4" opacity=".12"/><rect x="1000" width="3" height="1024" fill="#151A32" opacity=".12"/><rect x="1008" width="5" height="1024" fill="#F2EDE4" opacity=".12"/><rect x="1014" width="3" height="1024" fill="#151A32" opacity=".12"/><rect x="1022" width="5" height="1024" fill="#F2EDE4" opacity=".12"/><rect x="1028" width="3" height="1024" fill="#151A32" opacity=".12"/></svg>
