<svg xmlns="http://www.w3.org/2000/svg" width="1024" height="1024" viewBox="0 0 1024 1024"><defs><linearGradient id="mark" x1="280" y1="280" x2="730" y2="790" gradientUnits="userSpaceOnUse"><stop offset="0.000" stop-color="#F0E4D0"/><stop offset="0.500" stop-color="#D8CAA9"/><stop offset="1.000" stop-color="#FFF4DE"/></linearGradient><path id="mark-shape" d="M 289,258 H 410 Q 420,258 424,270 L 551,574 Q 560,599 568,576 Q 590,444 596,278 Q 596,258 616,258 H 728 Q 752,258 748,282 Q 708,553 531,785 Q 512,810 501,785 L 270,285 Q 260,258 289,258 Z" fill="none" stroke="url(#mark)" stroke-width="34" stroke-linejoin="round" transform="translate(512,512) scale(1.15) translate(-512,-512)"/><clipPath id="lens-0-0"><rect x="0.00" y="0" width="12.92" height="1024"/></clipPath><clipPath id="lens-0-1"><rect x="12.80" y="0" width="12.92" height="1024"/></clipPath><clipPath id="lens-0-2"><rect x="25.60" y="0" width="12.92" height="1024"/></clipPath><clipPath id="lens-0-3"><rect x="38.40" y="0" width="12.92" height="1024"/></clipPath><clipPath id="lens-0-4"><rect x="51.20" y="0" width="12.92" height="1024"/></clipPath><clipPath id="lens-1-0"><rect x="64.00" y="0" width="12.92" height="1024"/></clipPath><clipPath id="lens-1-1"><rect x="76.80" y="0" width="12.92" height="1024"/></clipPath><clipPath id="lens-1-2"><rect x="89.60" y="0" width="12.92" height="1024"/></clipPath><clipPath id="lens-1-3"><rect x="102.40" y="0" width="12.92" height="1024"/></clipPath><clipPath id="lens-1-4"><rect x="115.20" y="0" width="12.92" height="1024"/></clipPath><clipPath id="lens-2-0"><rect x="128.00" y="0" width="12.92" height="1024"/></clipPath><clipPath id="lens-2-1"><rect x="140.80" y="0" width="12.92" height="1024"/></clipPath><clipPath id="lens-2-2"><rect x="153.60" y="0" width="12.92" height="1024"/></clipPath><clipPath id="lens-2-3"><rect x="166.40" y="0" width="12.92" height="1024"/></clipPath><clipPath id="lens-2-4"><rect x="179.20" y="0" width="12.92" height="1024"/></clipPath><clipPath id="lens-3-0"><rect x="192.00" y="0" width="12.92" height="1024"/></clipPath><clipPath id="lens-3-1"><rect x="204.80" y="0" width="12.92" height="1024"/></clipPath><clipPath id="lens-3-2"><rect x="217.60" y="0" width="12.92" height="1024"/></clipPath><clipPath id="lens-3-3"><rect x="230.40" y="0" width="12.92" height="1024"/></clipPath><clipPath id="lens-3-4"><rect x="243.20" y="0" width="12.92" height="1024"/></clipPath><clipPath id="lens-4-0"><rect x="256.00" y="0" width="12.92" height="1024"/></clipPath><clipPath id="lens-4-1"><rect x="268.80" y="0" width="12.92" height="1024"/></clipPath><clipPath id="lens-4-2"><rect x="281.60" y="0" width="12.92" height="1024"/></clipPath><clipPath id="lens-4-3"><rect x="294.40" y="0" width="12.92" height="1024"/></clipPath><clipPath id="lens-4-4"><rect x="307.20" y="0" width="12.92" height="1024"/></clipPath><clipPath id="lens-5-0"><rect x="320.00" y="0" width="12.92" height="1024"/></clipPath><clipPath id="lens-5-1"><rect x="332.80" y="0" width="12.92" height="1024"/></clipPath><clipPath id="lens-5-2"><rect x="345.60" y="0" width="12.92" height="1024"/></clipPath><clipPath id="lens-5-3"><rect x="358.40" y="0" width="12.92" height="1024"/></clipPath><clipPath id="lens-5-4"><rect x="371.20" y="0" width="12.92" height="1024"/></clipPath><clipPath id="lens-6-0"><rect x="384.00" y="0" width="12.92" height="1024"/></clipPath><clipPath id="lens-6-1"><rect x="396.80" y="0" width="12.92" height="1024"/></clipPath><clipPath id="lens-6-2"><rect x="409.60" y="0" width="12.92" height="1024"/></clipPath><clipPath id="lens-6-3"><rect x="422.40" y="0" width="12.92" height="1024"/></clipPath><clipPath id="lens-6-4"><rect x="435.20" y="0" width="12.92" height="1024"/></clipPath><clipPath id="lens-7-0"><rect x="448.00" y="0" width="12.92" height="1024"/></clipPath><clipPath id="lens-7-1"><rect x="460.80" y="0" width="12.92" height="1024"/></clipPath><clipPath id="lens-7-2"><rect x="473.60" y="0" width="12.92" height="1024"/></clipPath><clipPath id="lens-7-3"><rect x="486.40" y="0" width="12.92" height="1024"/></clipPath><clipPath id="lens-7-4"><rect x="499.20" y="0" width="12.92" height="1024"/></clipPath><clipPath id="lens-8-0"><rect x="512.00" y="0" width="12.92" height="1024"/></clipPath><clipPath id="lens-8-1"><rect x="524.80" y="0" width="12.92" height="1024"/></clipPath><clipPath id="lens-8-2"><rect x="537.60" y="0" width="12.92" height="1024"/></clipPath><clipPath id="lens-8-3"><rect x="550.40" y="0" width="12.92" height="1024"/></clipPath><clipPath id="lens-8-4"><rect x="563.20" y="0" width="12.92" height="1024"/></clipPath><clipPath id="lens-9-0"><rect x="576.00" y="0" width="12.92" height="1024"/></clipPath><clipPath id="lens-9-1"><rect x="588.80" y="0" width="12.92" height="1024"/></clipPath><clipPath id="lens-9-2"><rect x="601.60" y="0" width="12.92" height="1024"/></clipPath><clipPath id="lens-9-3"><rect x="614.40" y="0" width="12.92" height="1024"/></clipPath><clipPath id="lens-9-4"><rect x="627.20" y="0" width="12.92" height="1024"/></clipPath><clipPath id="lens-10-0"><rect x="640.00" y="0" width="12.92" height="1024"/></clipPath><clipPath id="lens-10-1"><rect x="652.80" y="0" width="12.92" height="1024"/></clipPath><clipPath id="lens-10-2"><rect x="665.60" y="0" width="12.92" height="1024"/></clipPath><clipPath id="lens-10-3"><rect x="678.40" y="0" width="12.92" height="1024"/></clipPath><clipPath id="lens-10-4"><rect x="691.20" y="0" width="12.92" height="1024"/></clipPath><clipPath id="lens-11-0"><rect x="704.00" y="0" width="12.92" height="1024"/></clipPath><clipPath id="lens-11-1"><rect x="716.80" y="0" width="12.92" height="1024"/></clipPath><clipPath id="lens-11-2"><rect x="729.60" y="0" width="12.92" height="1024"/></clipPath><clipPath id="lens-11-3"><rect x="742.40" y="0" width="12.92" height="1024"/></clipPath><clipPath id="lens-11-4"><rect x="755.20" y="0" width="12.92" height="1024"/></clipPath><clipPath id="lens-12-0"><rect x="768.00" y="0" width="12.92" height="1024"/></clipPath><clipPath id="lens-12-1"><rect x="780.80" y="0" width="12.92" height="1024"/></clipPath><clipPath id="lens-12-2"><rect x="793.60" y="0" width="12.92" height="1024"/></clipPath><clipPath id="lens-12-3"><rect x="806.40" y="0" width="12.92" height="1024"/></clipPath><clipPath id="lens-12-4"><rect x="819.20" y="0" width="12.92" height="1024"/></clipPath><clipPath id="lens-13-0"><rect x="832.00" y="0" width="12.92" height="1024"/></clipPath><clipPath id="lens-13-1"><rect x="844.80" y="0" width="12.92" height="1024"/></clipPath><clipPath id="lens-13-2"><rect x="857.60" y="0" width="12.92" height="1024"/></clipPath><clipPath id="lens-13-3"><rect x="870.40" y="0" width="12.92" height="1024"/></clipPath><clipPath id="lens-13-4"><rect x="883.20" y="0" width="12.92" height="1024"/></clipPath><clipPath id="lens-14-0"><rect x="896.00" y="0" width="12.92" height="1024"/></clipPath><clipPath id="lens-14-1"><rect x="908.80" y="0" width="12.92" height="1024"/></clipPath><clipPath id="lens-14-2"><rect x="921.60" y="0" width="12.92" height="1024"/></clipPath><clipPath id="lens-14-3"><rect x="934.40" y="0" width="12.92" height="1024"/></clipPath><clipPath id="lens-14-4"><rect x="947.20" y="0" width="12.92" height="1024"/></clipPath><clipPath id="lens-15-0"><rect x="960.00" y="0" width="12.92" height="1024"/></clipPath><clipPath id="lens-15-1"><rect x="972.80" y="0" width="12.92" height="1024"/></clipPath><clipPath id="lens-15-2"><rect x="985.60" y="0" width="12.92" height="1024"/></clipPath><clipPath id="lens-15-3"><rect x="998.40" y="0" width="12.92" height="1024"/></clipPath><clipPath id="lens-15-4"><rect x="1011.20" y="0" width="12.92" height="1024"/></clipPath></defs><g clip-path="url(#lens-0-0)"><use href="#mark-shape" transform="translate(-0.71,0)" opacity="0.06"/><use href="#mark-shape" transform="translate(2.29,0)" opacity="0.1"/><use href="#mark-shape" transform="translate(5.29,0)" opacity="0.64"/><use href="#mark-shape" transform="translate(8.29,0)" opacity="0.1"/><use href="#mark-shape" transform="translate(11.29,0)" opacity="0.06"/></g><g clip-path="url(#lens-0-1)"><use href="#mark-shape" transform="translate(2.56,0)" opacity="0.06"/><use href="#mark-shape" transform="translate(5.56,0)" opacity="0.1"/><use href="#mark-shape" transform="translate(8.56,0)" opacity="0.64"/><use href="#mark-shape" transform="translate(11.56,0)" opacity="0.1"/><use href="#mark-shape" transform="translate(14.56,0)" opacity="0.06"/></g><g clip-path="url(#lens-0-2)"><use href="#mark-shape" transform="translate(-6.00,0)" opacity="0.06"/><use href="#mark-shape" transform="translate(-3.00,0)" opacity="0.1"/><use href="#mark-shape" transform="translate(0.00,0)" opacity="0.64"/><use href="#mark-shape" transform="translate(3.00,0)" opacity="0.1"/><use href="#mark-shape" transform="translate(6.00,0)" opacity="0.06"/></g><g clip-path="url(#lens-0-3)"><use href="#mark-shape" transform="translate(-14.56,0)" opacity="0.06"/><use href="#mark-shape" transform="translate(-11.56,0)" opacity="0.1"/><use href="#mark-shape" transform="translate(-8.56,0)" opacity="0.64"/><use href="#mark-shape" transform="translate(-5.56,0)" opacity="0.1"/><use href="#mark-shape" transform="translate(-2.56,0)" opacity="0.06"/></g><g clip-path="url(#lens-0-4)"><use href="#mark-shape" transform="translate(-11.29,0)" opacity="0.06"/><use href="#mark-shape" transform="translate(-8.29,0)" opacity="0.1"/><use href="#mark-shape" transform="translate(-5.29,0)" opacity="0.64"/><use href="#mark-shape" transform="translate(-2.29,0)" opacity="0.1"/><use href="#mark-shape" transform="translate(0.71,0)" opacity="0.06"/></g><g clip-path="url(#lens-1-0)"><use href="#mark-shape" transform="translate(-0.71,0)" opacity="0.06"/><use href="#mark-shape" transform="translate(2.29,0)" opacity="0.1"/><use href="#mark-shape" transform="translate(5.29,0)" opacity="0.64"/><use href="#mark-shape" transform="translate(8.29,0)" opacity="0.1"/><use href="#mark-shape" transform="translate(11.29,0)" opacity="0.06"/></g><g clip-path="url(#lens-1-1)"><use href="#mark-shape" transform="translate(2.56,0)" opacity="0.06"/><use href="#mark-shape" transform="translate(5.56,0)" opacity="0.1"/><use href="#mark-shape" transform="translate(8.56,0)" opacity="0.64"/><use href="#mark-shape" transform="translate(11.56,0)" opacity="0.1"/><use href="#mark-shape" transform="translate(14.56,0)" opacity="0.06"/></g><g clip-path="url(#lens-1-2)"><use href="#mark-shape" transform="translate(-6.00,0)" opacity="0.06"/><use href="#mark-shape" transform="translate(-3.00,0)" opacity="0.1"/><use href="#mark-shape" transform="translate(0.00,0)" opacity="0.64"/><use href="#mark-shape" transform="translate(3.00,0)" opacity="0.1"/><use href="#mark-shape" transform="translate(6.00,0)" opacity="0.06"/></g><g clip-path="url(#lens-1-3)"><use href="#mark-shape" transform="translate(-14.56,0)" opacity="0.06"/><use href="#mark-shape" transform="translate(-11.56,0)" opacity="0.1"/><use href="#mark-shape" transform="translate(-8.56,0)" opacity="0.64"/><use href="#mark-shape" transform="translate(-5.56,0)" opacity="0.1"/><use href="#mark-shape" transform="translate(-2.56,0)" opacity="0.06"/></g><g clip-path="url(#lens-1-4)"><use href="#mark-shape" transform="translate(-11.29,0)" opacity="0.06"/><use href="#mark-shape" transform="translate(-8.29,0)" opacity="0.1"/><use href="#mark-shape" transform="translate(-5.29,0)" opacity="0.64"/><use href="#mark-shape" transform="translate(-2.29,0)" opacity="0.1"/><use href="#mark-shape" transform="translate(0.71,0)" opacity="0.06"/></g><g clip-path="url(#lens-2-0)"><use href="#mark-shape" transform="translate(-0.71,0)" opacity="0.06"/><use href="#mark-shape" transform="translate(2.29,0)" opacity="0.1"/><use href="#mark-shape" transform="translate(5.29,0)" opacity="0.64"/><use href="#mark-shape" transform="translate(8.29,0)" opacity="0.1"/><use href="#mark-shape" transform="translate(11.29,0)" opacity="0.06"/></g><g clip-path="url(#lens-2-1)"><use href="#mark-shape" transform="translate(2.56,0)" opacity="0.06"/><use href="#mark-shape" transform="translate(5.56,0)" opacity="0.1"/><use href="#mark-shape" transform="translate(8.56,0)" opacity="0.64"/><use href="#mark-shape" transform="translate(11.56,0)" opacity="0.1"/><use href="#mark-shape" transform="translate(14.56,0)" opacity="0.06"/></g><g clip-path="url(#lens-2-2)"><use href="#mark-shape" transform="translate(-6.00,0)" opacity="0.06"/><use href="#mark-shape" transform="translate(-3.00,0)" opacity="0.1"/><use href="#mark-shape" transform="translate(0.00,0)" opacity="0.64"/><use href="#mark-shape" transform="translate(3.00,0)" opacity="0.1"/><use href="#mark-shape" transform="translate(6.00,0)" opacity="0.06"/></g><g clip-path="url(#lens-2-3)"><use href="#mark-shape" transform="translate(-14.56,0)" opacity="0.06"/><use href="#mark-shape" transform="translate(-11.56,0)" opacity="0.1"/><use href="#mark-shape" transform="translate(-8.56,0)" opacity="0.64"/><use href="#mark-shape" transform="translate(-5.56,0)" opacity="0.1"/><use href="#mark-shape" transform="translate(-2.56,0)" opacity="0.06"/></g><g clip-path="url(#lens-2-4)"><use href="#mark-shape" transform="translate(-11.29,0)" opacity="0.06"/><use href="#mark-shape" transform="translate(-8.29,0)" opacity="0.1"/><use href="#mark-shape" transform="translate(-5.29,0)" opacity="0.64"/><use href="#mark-shape" transform="translate(-2.29,0)" opacity="0.1"/><use href="#mark-shape" transform="translate(0.71,0)" opacity="0.06"/></g><g clip-path="url(#lens-3-0)"><use href="#mark-shape" transform="translate(-0.71,0)" opacity="0.06"/><use href="#mark-shape" transform="translate(2.29,0)" opacity="0.1"/><use href="#mark-shape" transform="translate(5.29,0)" opacity="0.64"/><use href="#mark-shape" transform="translate(8.29,0)" opacity="0.1"/><use href="#mark-shape" transform="translate(11.29,0)" opacity="0.06"/></g><g clip-path="url(#lens-3-1)"><use href="#mark-shape" transform="translate(2.56,0)" opacity="0.06"/><use href="#mark-shape" transform="translate(5.56,0)" opacity="0.1"/><use href="#mark-shape" transform="translate(8.56,0)" opacity="0.64"/><use href="#mark-shape" transform="translate(11.56,0)" opacity="0.1"/><use href="#mark-shape" transform="translate(14.56,0)" opacity="0.06"/></g><g clip-path="url(#lens-3-2)"><use href="#mark-shape" transform="translate(-6.00,0)" opacity="0.06"/><use href="#mark-shape" transform="translate(-3.00,0)" opacity="0.1"/><use href="#mark-shape" transform="translate(0.00,0)" opacity="0.64"/><use href="#mark-shape" transform="translate(3.00,0)" opacity="0.1"/><use href="#mark-shape" transform="translate(6.00,0)" opacity="0.06"/></g><g clip-path="url(#lens-3-3)"><use href="#mark-shape" transform="translate(-14.56,0)" opacity="0.06"/><use href="#mark-shape" transform="translate(-11.56,0)" opacity="0.1"/><use href="#mark-shape" transform="translate(-8.56,0)" opacity="0.64"/><use href="#mark-shape" transform="translate(-5.56,0)" opacity="0.1"/><use href="#mark-shape" transform="translate(-2.56,0)" opacity="0.06"/></g><g clip-path="url(#lens-3-4)"><use href="#mark-shape" transform="translate(-11.29,0)" opacity="0.06"/><use href="#mark-shape" transform="translate(-8.29,0)" opacity="0.1"/><use href="#mark-shape" transform="translate(-5.29,0)" opacity="0.64"/><use href="#mark-shape" transform="translate(-2.29,0)" opacity="0.1"/><use href="#mark-shape" transform="translate(0.71,0)" opacity="0.06"/></g><g clip-path="url(#lens-4-0)"><use href="#mark-shape" transform="translate(-0.71,0)" opacity="0.06"/><use href="#mark-shape" transform="translate(2.29,0)" opacity="0.1"/><use href="#mark-shape" transform="translate(5.29,0)" opacity="0.64"/><use href="#mark-shape" transform="translate(8.29,0)" opacity="0.1"/><use href="#mark-shape" transform="translate(11.29,0)" opacity="0.06"/></g><g clip-path="url(#lens-4-1)"><use href="#mark-shape" transform="translate(2.56,0)" opacity="0.06"/><use href="#mark-shape" transform="translate(5.56,0)" opacity="0.1"/><use href="#mark-shape" transform="translate(8.56,0)" opacity="0.64"/><use href="#mark-shape" transform="translate(11.56,0)" opacity="0.1"/><use href="#mark-shape" transform="translate(14.56,0)" opacity="0.06"/></g><g clip-path="url(#lens-4-2)"><use href="#mark-shape" transform="translate(-6.00,0)" opacity="0.06"/><use href="#mark-shape" transform="translate(-3.00,0)" opacity="0.1"/><use href="#mark-shape" transform="translate(0.00,0)" opacity="0.64"/><use href="#mark-shape" transform="translate(3.00,0)" opacity="0.1"/><use href="#mark-shape" transform="translate(6.00,0)" opacity="0.06"/></g><g clip-path="url(#lens-4-3)"><use href="#mark-shape" transform="translate(-14.56,0)" opacity="0.06"/><use href="#mark-shape" transform="translate(-11.56,0)" opacity="0.1"/><use href="#mark-shape" transform="translate(-8.56,0)" opacity="0.64"/><use href="#mark-shape" transform="translate(-5.56,0)" opacity="0.1"/><use href="#mark-shape" transform="translate(-2.56,0)" opacity="0.06"/></g><g clip-path="url(#lens-4-4)"><use href="#mark-shape" transform="translate(-11.29,0)" opacity="0.06"/><use href="#mark-shape" transform="translate(-8.29,0)" opacity="0.1"/><use href="#mark-shape" transform="translate(-5.29,0)" opacity="0.64"/><use href="#mark-shape" transform="translate(-2.29,0)" opacity="0.1"/><use href="#mark-shape" transform="translate(0.71,0)" opacity="0.06"/></g><g clip-path="url(#lens-5-0)"><use href="#mark-shape" transform="translate(-0.71,0)" opacity="0.06"/><use href="#mark-shape" transform="translate(2.29,0)" opacity="0.1"/><use href="#mark-shape" transform="translate(5.29,0)" opacity="0.64"/><use href="#mark-shape" transform="translate(8.29,0)" opacity="0.1"/><use href="#mark-shape" transform="translate(11.29,0)" opacity="0.06"/></g><g clip-path="url(#lens-5-1)"><use href="#mark-shape" transform="translate(2.56,0)" opacity="0.06"/><use href="#mark-shape" transform="translate(5.56,0)" opacity="0.1"/><use href="#mark-shape" transform="translate(8.56,0)" opacity="0.64"/><use href="#mark-shape" transform="translate(11.56,0)" opacity="0.1"/><use href="#mark-shape" transform="translate(14.56,0)" opacity="0.06"/></g><g clip-path="url(#lens-5-2)"><use href="#mark-shape" transform="translate(-6.00,0)" opacity="0.06"/><use href="#mark-shape" transform="translate(-3.00,0)" opacity="0.1"/><use href="#mark-shape" transform="translate(0.00,0)" opacity="0.64"/><use href="#mark-shape" transform="translate(3.00,0)" opacity="0.1"/><use href="#mark-shape" transform="translate(6.00,0)" opacity="0.06"/></g><g clip-path="url(#lens-5-3)"><use href="#mark-shape" transform="translate(-14.56,0)" opacity="0.06"/><use href="#mark-shape" transform="translate(-11.56,0)" opacity="0.1"/><use href="#mark-shape" transform="translate(-8.56,0)" opacity="0.64"/><use href="#mark-shape" transform="translate(-5.56,0)" opacity="0.1"/><use href="#mark-shape" transform="translate(-2.56,0)" opacity="0.06"/></g><g clip-path="url(#lens-5-4)"><use href="#mark-shape" transform="translate(-11.29,0)" opacity="0.06"/><use href="#mark-shape" transform="translate(-8.29,0)" opacity="0.1"/><use href="#mark-shape" transform="translate(-5.29,0)" opacity="0.64"/><use href="#mark-shape" transform="translate(-2.29,0)" opacity="0.1"/><use href="#mark-shape" transform="translate(0.71,0)" opacity="0.06"/></g><g clip-path="url(#lens-6-0)"><use href="#mark-shape" transform="translate(-0.71,0)" opacity="0.06"/><use href="#mark-shape" transform="translate(2.29,0)" opacity="0.1"/><use href="#mark-shape" transform="translate(5.29,0)" opacity="0.64"/><use href="#mark-shape" transform="translate(8.29,0)" opacity="0.1"/><use href="#mark-shape" transform="translate(11.29,0)" opacity="0.06"/></g><g clip-path="url(#lens-6-1)"><use href="#mark-shape" transform="translate(2.56,0)" opacity="0.06"/><use href="#mark-shape" transform="translate(5.56,0)" opacity="0.1"/><use href="#mark-shape" transform="translate(8.56,0)" opacity="0.64"/><use href="#mark-shape" transform="translate(11.56,0)" opacity="0.1"/><use href="#mark-shape" transform="translate(14.56,0)" opacity="0.06"/></g><g clip-path="url(#lens-6-2)"><use href="#mark-shape" transform="translate(-6.00,0)" opacity="0.06"/><use href="#mark-shape" transform="translate(-3.00,0)" opacity="0.1"/><use href="#mark-shape" transform="translate(0.00,0)" opacity="0.64"/><use href="#mark-shape" transform="translate(3.00,0)" opacity="0.1"/><use href="#mark-shape" transform="translate(6.00,0)" opacity="0.06"/></g><g clip-path="url(#lens-6-3)"><use href="#mark-shape" transform="translate(-14.56,0)" opacity="0.06"/><use href="#mark-shape" transform="translate(-11.56,0)" opacity="0.1"/><use href="#mark-shape" transform="translate(-8.56,0)" opacity="0.64"/><use href="#mark-shape" transform="translate(-5.56,0)" opacity="0.1"/><use href="#mark-shape" transform="translate(-2.56,0)" opacity="0.06"/></g><g clip-path="url(#lens-6-4)"><use href="#mark-shape" transform="translate(-11.29,0)" opacity="0.06"/><use href="#mark-shape" transform="translate(-8.29,0)" opacity="0.1"/><use href="#mark-shape" transform="translate(-5.29,0)" opacity="0.64"/><use href="#mark-shape" transform="translate(-2.29,0)" opacity="0.1"/><use href="#mark-shape" transform="translate(0.71,0)" opacity="0.06"/></g><g clip-path="url(#lens-7-0)"><use href="#mark-shape" transform="translate(-0.71,0)" opacity="0.06"/><use href="#mark-shape" transform="translate(2.29,0)" opacity="0.1"/><use href="#mark-shape" transform="translate(5.29,0)" opacity="0.64"/><use href="#mark-shape" transform="translate(8.29,0)" opacity="0.1"/><use href="#mark-shape" transform="translate(11.29,0)" opacity="0.06"/></g><g clip-path="url(#lens-7-1)"><use href="#mark-shape" transform="translate(2.56,0)" opacity="0.06"/><use href="#mark-shape" transform="translate(5.56,0)" opacity="0.1"/><use href="#mark-shape" transform="translate(8.56,0)" opacity="0.64"/><use href="#mark-shape" transform="translate(11.56,0)" opacity="0.1"/><use href="#mark-shape" transform="translate(14.56,0)" opacity="0.06"/></g><g clip-path="url(#lens-7-2)"><use href="#mark-shape" transform="translate(-6.00,0)" opacity="0.06"/><use href="#mark-shape" transform="translate(-3.00,0)" opacity="0.1"/><use href="#mark-shape" transform="translate(0.00,0)" opacity="0.64"/><use href="#mark-shape" transform="translate(3.00,0)" opacity="0.1"/><use href="#mark-shape" transform="translate(6.00,0)" opacity="0.06"/></g><g clip-path="url(#lens-7-3)"><use href="#mark-shape" transform="translate(-14.56,0)" opacity="0.06"/><use href="#mark-shape" transform="translate(-11.56,0)" opacity="0.1"/><use href="#mark-shape" transform="translate(-8.56,0)" opacity="0.64"/><use href="#mark-shape" transform="translate(-5.56,0)" opacity="0.1"/><use href="#mark-shape" transform="translate(-2.56,0)" opacity="0.06"/></g><g clip-path="url(#lens-7-4)"><use href="#mark-shape" transform="translate(-11.29,0)" opacity="0.06"/><use href="#mark-shape" transform="translate(-8.29,0)" opacity="0.1"/><use href="#mark-shape" transform="translate(-5.29,0)" opacity="0.64"/><use href="#mark-shape" transform="translate(-2.29,0)" opacity="0.1"/><use href="#mark-shape" transform="translate(0.71,0)" opacity="0.06"/></g><g clip-path="url(#lens-8-0)"><use href="#mark-shape" transform="translate(-0.71,0)" opacity="0.06"/><use href="#mark-shape" transform="translate(2.29,0)" opacity="0.1"/><use href="#mark-shape" transform="translate(5.29,0)" opacity="0.64"/><use href="#mark-shape" transform="translate(8.29,0)" opacity="0.1"/><use href="#mark-shape" transform="translate(11.29,0)" opacity="0.06"/></g><g clip-path="url(#lens-8-1)"><use href="#mark-shape" transform="translate(2.56,0)" opacity="0.06"/><use href="#mark-shape" transform="translate(5.56,0)" opacity="0.1"/><use href="#mark-shape" transform="translate(8.56,0)" opacity="0.64"/><use href="#mark-shape" transform="translate(11.56,0)" opacity="0.1"/><use href="#mark-shape" transform="translate(14.56,0)" opacity="0.06"/></g><g clip-path="url(#lens-8-2)"><use href="#mark-shape" transform="translate(-6.00,0)" opacity="0.06"/><use href="#mark-shape" transform="translate(-3.00,0)" opacity="0.1"/><use href="#mark-shape" transform="translate(0.00,0)" opacity="0.64"/><use href="#mark-shape" transform="translate(3.00,0)" opacity="0.1"/><use href="#mark-shape" transform="translate(6.00,0)" opacity="0.06"/></g><g clip-path="url(#lens-8-3)"><use href="#mark-shape" transform="translate(-14.56,0)" opacity="0.06"/><use href="#mark-shape" transform="translate(-11.56,0)" opacity="0.1"/><use href="#mark-shape" transform="translate(-8.56,0)" opacity="0.64"/><use href="#mark-shape" transform="translate(-5.56,0)" opacity="0.1"/><use href="#mark-shape" transform="translate(-2.56,0)" opacity="0.06"/></g><g clip-path="url(#lens-8-4)"><use href="#mark-shape" transform="translate(-11.29,0)" opacity="0.06"/><use href="#mark-shape" transform="translate(-8.29,0)" opacity="0.1"/><use href="#mark-shape" transform="translate(-5.29,0)" opacity="0.64"/><use href="#mark-shape" transform="translate(-2.29,0)" opacity="0.1"/><use href="#mark-shape" transform="translate(0.71,0)" opacity="0.06"/></g><g clip-path="url(#lens-9-0)"><use href="#mark-shape" transform="translate(-0.71,0)" opacity="0.06"/><use href="#mark-shape" transform="translate(2.29,0)" opacity="0.1"/><use href="#mark-shape" transform="translate(5.29,0)" opacity="0.64"/><use href="#mark-shape" transform="translate(8.29,0)" opacity="0.1"/><use href="#mark-shape" transform="translate(11.29,0)" opacity="0.06"/></g><g clip-path="url(#lens-9-1)"><use href="#mark-shape" transform="translate(2.56,0)" opacity="0.06"/><use href="#mark-shape" transform="translate(5.56,0)" opacity="0.1"/><use href="#mark-shape" transform="translate(8.56,0)" opacity="0.64"/><use href="#mark-shape" transform="translate(11.56,0)" opacity="0.1"/><use href="#mark-shape" transform="translate(14.56,0)" opacity="0.06"/></g><g clip-path="url(#lens-9-2)"><use href="#mark-shape" transform="translate(-6.00,0)" opacity="0.06"/><use href="#mark-shape" transform="translate(-3.00,0)" opacity="0.1"/><use href="#mark-shape" transform="translate(0.00,0)" opacity="0.64"/><use href="#mark-shape" transform="translate(3.00,0)" opacity="0.1"/><use href="#mark-shape" transform="translate(6.00,0)" opacity="0.06"/></g><g clip-path="url(#lens-9-3)"><use href="#mark-shape" transform="translate(-14.56,0)" opacity="0.06"/><use href="#mark-shape" transform="translate(-11.56,0)" opacity="0.1"/><use href="#mark-shape" transform="translate(-8.56,0)" opacity="0.64"/><use href="#mark-shape" transform="translate(-5.56,0)" opacity="0.1"/><use href="#mark-shape" transform="translate(-2.56,0)" opacity="0.06"/></g><g clip-path="url(#lens-9-4)"><use href="#mark-shape" transform="translate(-11.29,0)" opacity="0.06"/><use href="#mark-shape" transform="translate(-8.29,0)" opacity="0.1"/><use href="#mark-shape" transform="translate(-5.29,0)" opacity="0.64"/><use href="#mark-shape" transform="translate(-2.29,0)" opacity="0.1"/><use href="#mark-shape" transform="translate(0.71,0)" opacity="0.06"/></g><g clip-path="url(#lens-10-0)"><use href="#mark-shape" transform="translate(-0.71,0)" opacity="0.06"/><use href="#mark-shape" transform="translate(2.29,0)" opacity="0.1"/><use href="#mark-shape" transform="translate(5.29,0)" opacity="0.64"/><use href="#mark-shape" transform="translate(8.29,0)" opacity="0.1"/><use href="#mark-shape" transform="translate(11.29,0)" opacity="0.06"/></g><g clip-path="url(#lens-10-1)"><use href="#mark-shape" transform="translate(2.56,0)" opacity="0.06"/><use href="#mark-shape" transform="translate(5.56,0)" opacity="0.1"/><use href="#mark-shape" transform="translate(8.56,0)" opacity="0.64"/><use href="#mark-shape" transform="translate(11.56,0)" opacity="0.1"/><use href="#mark-shape" transform="translate(14.56,0)" opacity="0.06"/></g><g clip-path="url(#lens-10-2)"><use href="#mark-shape" transform="translate(-6.00,0)" opacity="0.06"/><use href="#mark-shape" transform="translate(-3.00,0)" opacity="0.1"/><use href="#mark-shape" transform="translate(0.00,0)" opacity="0.64"/><use href="#mark-shape" transform="translate(3.00,0)" opacity="0.1"/><use href="#mark-shape" transform="translate(6.00,0)" opacity="0.06"/></g><g clip-path="url(#lens-10-3)"><use href="#mark-shape" transform="translate(-14.56,0)" opacity="0.06"/><use href="#mark-shape" transform="translate(-11.56,0)" opacity="0.1"/><use href="#mark-shape" transform="translate(-8.56,0)" opacity="0.64"/><use href="#mark-shape" transform="translate(-5.56,0)" opacity="0.1"/><use href="#mark-shape" transform="translate(-2.56,0)" opacity="0.06"/></g><g clip-path="url(#lens-10-4)"><use href="#mark-shape" transform="translate(-11.29,0)" opacity="0.06"/><use href="#mark-shape" transform="translate(-8.29,0)" opacity="0.1"/><use href="#mark-shape" transform="translate(-5.29,0)" opacity="0.64"/><use href="#mark-shape" transform="translate(-2.29,0)" opacity="0.1"/><use href="#mark-shape" transform="translate(0.71,0)" opacity="0.06"/></g><g clip-path="url(#lens-11-0)"><use href="#mark-shape" transform="translate(-0.71,0)" opacity="0.06"/><use href="#mark-shape" transform="translate(2.29,0)" opacity="0.1"/><use href="#mark-shape" transform="translate(5.29,0)" opacity="0.64"/><use href="#mark-shape" transform="translate(8.29,0)" opacity="0.1"/><use href="#mark-shape" transform="translate(11.29,0)" opacity="0.06"/></g><g clip-path="url(#lens-11-1)"><use href="#mark-shape" transform="translate(2.56,0)" opacity="0.06"/><use href="#mark-shape" transform="translate(5.56,0)" opacity="0.1"/><use href="#mark-shape" transform="translate(8.56,0)" opacity="0.64"/><use href="#mark-shape" transform="translate(11.56,0)" opacity="0.1"/><use href="#mark-shape" transform="translate(14.56,0)" opacity="0.06"/></g><g clip-path="url(#lens-11-2)"><use href="#mark-shape" transform="translate(-6.00,0)" opacity="0.06"/><use href="#mark-shape" transform="translate(-3.00,0)" opacity="0.1"/><use href="#mark-shape" transform="translate(0.00,0)" opacity="0.64"/><use href="#mark-shape" transform="translate(3.00,0)" opacity="0.1"/><use href="#mark-shape" transform="translate(6.00,0)" opacity="0.06"/></g><g clip-path="url(#lens-11-3)"><use href="#mark-shape" transform="translate(-14.56,0)" opacity="0.06"/><use href="#mark-shape" transform="translate(-11.56,0)" opacity="0.1"/><use href="#mark-shape" transform="translate(-8.56,0)" opacity="0.64"/><use href="#mark-shape" transform="translate(-5.56,0)" opacity="0.1"/><use href="#mark-shape" transform="translate(-2.56,0)" opacity="0.06"/></g><g clip-path="url(#lens-11-4)"><use href="#mark-shape" transform="translate(-11.29,0)" opacity="0.06"/><use href="#mark-shape" transform="translate(-8.29,0)" opacity="0.1"/><use href="#mark-shape" transform="translate(-5.29,0)" opacity="0.64"/><use href="#mark-shape" transform="translate(-2.29,0)" opacity="0.1"/><use href="#mark-shape" transform="translate(0.71,0)" opacity="0.06"/></g><g clip-path="url(#lens-12-0)"><use href="#mark-shape" transform="translate(-0.71,0)" opacity="0.06"/><use href="#mark-shape" transform="translate(2.29,0)" opacity="0.1"/><use href="#mark-shape" transform="translate(5.29,0)" opacity="0.64"/><use href="#mark-shape" transform="translate(8.29,0)" opacity="0.1"/><use href="#mark-shape" transform="translate(11.29,0)" opacity="0.06"/></g><g clip-path="url(#lens-12-1)"><use href="#mark-shape" transform="translate(2.56,0)" opacity="0.06"/><use href="#mark-shape" transform="translate(5.56,0)" opacity="0.1"/><use href="#mark-shape" transform="translate(8.56,0)" opacity="0.64"/><use href="#mark-shape" transform="translate(11.56,0)" opacity="0.1"/><use href="#mark-shape" transform="translate(14.56,0)" opacity="0.06"/></g><g clip-path="url(#lens-12-2)"><use href="#mark-shape" transform="translate(-6.00,0)" opacity="0.06"/><use href="#mark-shape" transform="translate(-3.00,0)" opacity="0.1"/><use href="#mark-shape" transform="translate(0.00,0)" opacity="0.64"/><use href="#mark-shape" transform="translate(3.00,0)" opacity="0.1"/><use href="#mark-shape" transform="translate(6.00,0)" opacity="0.06"/></g><g clip-path="url(#lens-12-3)"><use href="#mark-shape" transform="translate(-14.56,0)" opacity="0.06"/><use href="#mark-shape" transform="translate(-11.56,0)" opacity="0.1"/><use href="#mark-shape" transform="translate(-8.56,0)" opacity="0.64"/><use href="#mark-shape" transform="translate(-5.56,0)" opacity="0.1"/><use href="#mark-shape" transform="translate(-2.56,0)" opacity="0.06"/></g><g clip-path="url(#lens-12-4)"><use href="#mark-shape" transform="translate(-11.29,0)" opacity="0.06"/><use href="#mark-shape" transform="translate(-8.29,0)" opacity="0.1"/><use href="#mark-shape" transform="translate(-5.29,0)" opacity="0.64"/><use href="#mark-shape" transform="translate(-2.29,0)" opacity="0.1"/><use href="#mark-shape" transform="translate(0.71,0)" opacity="0.06"/></g><g clip-path="url(#lens-13-0)"><use href="#mark-shape" transform="translate(-0.71,0)" opacity="0.06"/><use href="#mark-shape" transform="translate(2.29,0)" opacity="0.1"/><use href="#mark-shape" transform="translate(5.29,0)" opacity="0.64"/><use href="#mark-shape" transform="translate(8.29,0)" opacity="0.1"/><use href="#mark-shape" transform="translate(11.29,0)" opacity="0.06"/></g><g clip-path="url(#lens-13-1)"><use href="#mark-shape" transform="translate(2.56,0)" opacity="0.06"/><use href="#mark-shape" transform="translate(5.56,0)" opacity="0.1"/><use href="#mark-shape" transform="translate(8.56,0)" opacity="0.64"/><use href="#mark-shape" transform="translate(11.56,0)" opacity="0.1"/><use href="#mark-shape" transform="translate(14.56,0)" opacity="0.06"/></g><g clip-path="url(#lens-13-2)"><use href="#mark-shape" transform="translate(-6.00,0)" opacity="0.06"/><use href="#mark-shape" transform="translate(-3.00,0)" opacity="0.1"/><use href="#mark-shape" transform="translate(0.00,0)" opacity="0.64"/><use href="#mark-shape" transform="translate(3.00,0)" opacity="0.1"/><use href="#mark-shape" transform="translate(6.00,0)" opacity="0.06"/></g><g clip-path="url(#lens-13-3)"><use href="#mark-shape" transform="translate(-14.56,0)" opacity="0.06"/><use href="#mark-shape" transform="translate(-11.56,0)" opacity="0.1"/><use href="#mark-shape" transform="translate(-8.56,0)" opacity="0.64"/><use href="#mark-shape" transform="translate(-5.56,0)" opacity="0.1"/><use href="#mark-shape" transform="translate(-2.56,0)" opacity="0.06"/></g><g clip-path="url(#lens-13-4)"><use href="#mark-shape" transform="translate(-11.29,0)" opacity="0.06"/><use href="#mark-shape" transform="translate(-8.29,0)" opacity="0.1"/><use href="#mark-shape" transform="translate(-5.29,0)" opacity="0.64"/><use href="#mark-shape" transform="translate(-2.29,0)" opacity="0.1"/><use href="#mark-shape" transform="translate(0.71,0)" opacity="0.06"/></g><g clip-path="url(#lens-14-0)"><use href="#mark-shape" transform="translate(-0.71,0)" opacity="0.06"/><use href="#mark-shape" transform="translate(2.29,0)" opacity="0.1"/><use href="#mark-shape" transform="translate(5.29,0)" opacity="0.64"/><use href="#mark-shape" transform="translate(8.29,0)" opacity="0.1"/><use href="#mark-shape" transform="translate(11.29,0)" opacity="0.06"/></g><g clip-path="url(#lens-14-1)"><use href="#mark-shape" transform="translate(2.56,0)" opacity="0.06"/><use href="#mark-shape" transform="translate(5.56,0)" opacity="0.1"/><use href="#mark-shape" transform="translate(8.56,0)" opacity="0.64"/><use href="#mark-shape" transform="translate(11.56,0)" opacity="0.1"/><use href="#mark-shape" transform="translate(14.56,0)" opacity="0.06"/></g><g clip-path="url(#lens-14-2)"><use href="#mark-shape" transform="translate(-6.00,0)" opacity="0.06"/><use href="#mark-shape" transform="translate(-3.00,0)" opacity="0.1"/><use href="#mark-shape" transform="translate(0.00,0)" opacity="0.64"/><use href="#mark-shape" transform="translate(3.00,0)" opacity="0.1"/><use href="#mark-shape" transform="translate(6.00,0)" opacity="0.06"/></g><g clip-path="url(#lens-14-3)"><use href="#mark-shape" transform="translate(-14.56,0)" opacity="0.06"/><use href="#mark-shape" transform="translate(-11.56,0)" opacity="0.1"/><use href="#mark-shape" transform="translate(-8.56,0)" opacity="0.64"/><use href="#mark-shape" transform="translate(-5.56,0)" opacity="0.1"/><use href="#mark-shape" transform="translate(-2.56,0)" opacity="0.06"/></g><g clip-path="url(#lens-14-4)"><use href="#mark-shape" transform="translate(-11.29,0)" opacity="0.06"/><use href="#mark-shape" transform="translate(-8.29,0)" opacity="0.1"/><use href="#mark-shape" transform="translate(-5.29,0)" opacity="0.64"/><use href="#mark-shape" transform="translate(-2.29,0)" opacity="0.1"/><use href="#mark-shape" transform="translate(0.71,0)" opacity="0.06"/></g><g clip-path="url(#lens-15-0)"><use href="#mark-shape" transform="translate(-0.71,0)" opacity="0.06"/><use href="#mark-shape" transform="translate(2.29,0)" opacity="0.1"/><use href="#mark-shape" transform="translate(5.29,0)" opacity="0.64"/><use href="#mark-shape" transform="translate(8.29,0)" opacity="0.1"/><use href="#mark-shape" transform="translate(11.29,0)" opacity="0.06"/></g><g clip-path="url(#lens-15-1)"><use href="#mark-shape" transform="translate(2.56,0)" opacity="0.06"/><use href="#mark-shape" transform="translate(5.56,0)" opacity="0.1"/><use href="#mark-shape" transform="translate(8.56,0)" opacity="0.64"/><use href="#mark-shape" transform="translate(11.56,0)" opacity="0.1"/><use href="#mark-shape" transform="translate(14.56,0)" opacity="0.06"/></g><g clip-path="url(#lens-15-2)"><use href="#mark-shape" transform="translate(-6.00,0)" opacity="0.06"/><use href="#mark-shape" transform="translate(-3.00,0)" opacity="0.1"/><use href="#mark-shape" transform="translate(0.00,0)" opacity="0.64"/><use href="#mark-shape" transform="translate(3.00,0)" opacity="0.1"/><use href="#mark-shape" transform="translate(6.00,0)" opacity="0.06"/></g><g clip-path="url(#lens-15-3)"><use href="#mark-shape" transform="translate(-14.56,0)" opacity="0.06"/><use href="#mark-shape" transform="translate(-11.56,0)" opacity="0.1"/><use href="#mark-shape" transform="translate(-8.56,0)" opacity="0.64"/><use href="#mark-shape" transform="translate(-5.56,0)" opacity="0.1"/><use href="#mark-shape" transform="translate(-2.56,0)" opacity="0.06"/></g><g clip-path="url(#lens-15-4)"><use href="#mark-shape" transform="translate(-11.29,0)" opacity="0.06"/><use href="#mark-shape" transform="translate(-8.29,0)" opacity="0.1"/><use href="#mark-shape" transform="translate(-5.29,0)" opacity="0.64"/><use href="#mark-shape" transform="translate(-2.29,0)" opacity="0.1"/><use href="#mark-shape" transform="translate(0.71,0)" opacity="0.06"/></g></svg>
